HIERARCHY
ROOT Hips
{
	OFFSET 0.00000 0.00000 0.00000
	CHANNELS 6 Xposition Yposition Zposition Zrotation Yrotation Xrotation 
	JOINT LHipJoint
	{
		OFFSET 0 0 0
		CHANNELS 3 Zrotation Yrotation Xrotation
		JOINT LeftHip
		{
			OFFSET 1.85742 -1.74412 1.01653
			CHANNELS 3 Zrotation Yrotation Xrotation
			JOINT LeftKnee
			{
				OFFSET 2.54803 -7.00067 0.00000
				CHANNELS 3 Zrotation Yrotation Xrotation
				JOINT LeftAnkle
				{
					OFFSET 2.51202 -6.90173 0.00000
					CHANNELS 3 Zrotation Yrotation Xrotation
					JOINT LeftToe
					{
						OFFSET 0.17547 -0.48209 1.64281
						CHANNELS 3 Zrotation Yrotation Xrotation
						End Site
						{
							OFFSET 0.00000 -0.00000 0.86587
						}
					}
				}
			}
		}
	}
	JOINT RHipJoint
	{
		OFFSET 0 0 0
		CHANNELS 3 Zrotation Yrotation Xrotation
		JOINT RightHip
		{
			OFFSET -1.95533 -1.74413 1.01654
			CHANNELS 3 Zrotation Yrotation Xrotation
			JOINT RightKnee
			{
				OFFSET -2.49465 -6.85400 0.00000
				CHANNELS 3 Zrotation Yrotation Xrotation
				JOINT RightAnkle
				{
					OFFSET -2.54783 -7.00010 0.00000
					CHANNELS 3 Zrotation Yrotation Xrotation
					JOINT RightToe
					{
						OFFSET -0.18513 -0.50864 1.69288
						CHANNELS 3 Zrotation Yrotation Xrotation
						End Site
						{
							OFFSET -0.00000 -0.00000 0.89242
						}
					}
				}
			}
		}
	}
	JOINT lowerback
	{
		OFFSET 0 0 0
		CHANNELS 3 Zrotation Yrotation Xrotation
		JOINT Chest
		{
			OFFSET 0.02173 2.16290 -0.15998
			CHANNELS 3 Zrotation Yrotation Xrotation
			JOINT Chest2
			{
				OFFSET 0.00940 2.17323 -0.00467
				CHANNELS 3 Zrotation Yrotation Xrotation
				JOINT lowerneck
				{
					OFFSET 0 0 0
					CHANNELS 3 Zrotation Yrotation Xrotation
					JOINT Neck
					{
						OFFSET 0.01475 1.85823 0.31113
						CHANNELS 3 Zrotation Yrotation Xrotation
						JOINT Head
						{
							OFFSET 0.01902 1.88783 -0.37187
							CHANNELS 3 Zrotation Yrotation Xrotation
							End Site
							{
								OFFSET 0.00489 1.93211 -0.16169
							}
						}
					}
				}
				JOINT LeftCollar
				{
					OFFSET 0 0 0
					CHANNELS 3 Zrotation Yrotation Xrotation
					JOINT LeftShoulder
					{
						OFFSET 3.34199 1.32384 -0.07862
CHANNELS 3 Zrotation Xrotation Yrotation
						JOINT LeftElbow
						{
OFFSET 0 -5.279500 0.000000
CHANNELS 3 Zrotation Xrotation Yrotation
							JOINT LeftWrist
							{
OFFSET 0 -3.535040 0.000000
CHANNELS 3 Zrotation Xrotation Yrotation
								JOINT lhand
								{
									OFFSET 0 0 0
CHANNELS 3 Zrotation Xrotation Yrotation
									JOINT LFingers
									{
OFFSET 0 -0.667950 0.000000
CHANNELS 3 Zrotation Xrotation Yrotation
										End Site
										{
OFFSET 0 -0.538520 0.000000
										}
									}
								}
								JOINT LThumb
								{
OFFSET 0 0.000000 0.000000
CHANNELS 3 Zrotation Xrotation Yrotation
									End Site
									{
OFFSET 0 -0.546740 0.546740
									}
								}
							}
						}
					}
				}
				JOINT RightCollar
				{
					OFFSET 0 0 0
					CHANNELS 3 Zrotation Yrotation Xrotation
					JOINT RightShoulder
					{
						OFFSET -3.16149 1.45719 -0.50507
CHANNELS 3 Zrotation Xrotation Yrotation
						JOINT RightElbow
						{
OFFSET 0 -5.250350 0.000000
CHANNELS 3 Zrotation Xrotation Yrotation
							JOINT RightWrist
							{
OFFSET 0 -3.588840 0.000000
CHANNELS 3 Zrotation Xrotation Yrotation
								JOINT rhand
								{
									OFFSET 0 0 0
CHANNELS 3 Zrotation Xrotation Yrotation
									JOINT RFingers
									{
OFFSET 0 -0.779240 0.000000
CHANNELS 3 Zrotation Xrotation Yrotation
										End Site
										{
OFFSET 0 -0.628240 0.000000
										}
									}
								}
								JOINT RThumb
								{
OFFSET 0 0.000000 0.000000
CHANNELS 3 Zrotation Xrotation Yrotation
									End Site
									{
OFFSET 0 -0.637830 0.637830
									}
								}
							}
						}
					}
				}
			}
		}
	}
}
MOTION
Frames: 4
Frame Time: 0.008333333333333333
-8.878884 17.693297 -5.452317 -511.367791 71.551038 -497.164962 0.000000 0.000000 0.000000 -1.863642 -17.337882 -29.289140 3.037712 10.755898 31.460972 0.608319 -4.004953 -13.917455 2.780984 -10.331659 -30.057664 0.000000 0.000000 0.000000 23.015552 -5.337635 -10.459004 0.000000 0.000000 0.000000 0.156476 -7.575441 -5.874192 -0.954955 6.222120 -17.430462 -5.582448 1.884757 13.161177 -8.954367 2.362004 5.606160 -6.674430 1.517853 -1.242310 -0.263516 -3.870945 -20.484696 6.618633 -7.001366 34.250915 1.620093 -1.652902 15.904904 0.000000 0.000000 0.000000 -4.127178 -37.026509 -96.995041 18.676356 -29.014560 4.872847 43.147768 44.326963 -47.645640 0.000000 0.000000 0.000000 -7.125000 0.000000 0.000000 9.245433 86.303153 -8.632391 0.000000 0.000000 0.000000 -43.250194 -30.284167 78.381102 -65.399598 -57.585014 -38.868147 -16.253648 -37.029883 9.780592 0.000000 0.000000 0.000000 7.125000 0.000000 0.000000 9.396318 39.986615 1.173141
-8.864157 17.703193 -5.449646 -511.014598 71.697862 -496.850970 0.000000 0.000000 0.000000 -1.894086 -17.217765 -29.067722 3.003875 10.701300 31.279071 0.610784 -3.738980 -13.966474 2.976188 -10.656260 -31.129314 0.000000 0.000000 0.000000 23.027376 -5.189584 -10.300735 0.000000 0.000000 0.000000 0.155457 -7.587021 -5.962812 -0.863836 5.926491 -16.571312 -5.818356 1.942459 13.065532 -8.967114 2.419996 5.587474 -6.557618 1.543546 -1.212628 -0.235403 -3.823325 -20.359416 6.642356 -6.937912 34.252569 1.639678 -1.620292 15.872925 0.000000 0.000000 0.000000 -4.012362 -36.857511 -96.536159 18.644588 -28.974631 4.857502 43.657752 44.284561 -47.227802 0.000000 0.000000 0.000000 -7.125000 0.000000 0.000000 14.014606 86.072710 -13.032461 0.000000 0.000000 0.000000 -43.680007 -30.385891 78.642396 -65.010577 -57.503656 -38.539939 -16.342404 -39.298736 9.806803 0.000000 0.000000 0.000000 7.125000 0.000000 0.000000 9.324567 40.020788 1.156087
-8.856472 17.705550 -5.446443 -510.314479 71.746345 -496.104269 0.000000 0.000000 0.000000 -1.666316 -17.177693 -29.054456 2.997150 10.690385 31.242691 0.615414 -3.569354 -14.035328 2.971614 -10.648897 -31.104738 0.000000 0.000000 0.000000 23.204995 -4.970346 -10.305378 0.000000 0.000000 0.000000 0.161328 -7.695493 -5.974892 -0.839910 5.845838 -16.337812 -5.833419 1.998945 12.908141 -8.925489 2.490573 5.508762 -6.506362 1.572155 -1.209630 -0.407536 -3.789871 -20.355684 6.969260 -6.931990 34.423457 1.820408 -1.580015 15.984939 0.000000 0.000000 0.000000 -3.972737 -36.724340 -96.406993 18.644022 -28.973936 4.857193 43.511296 43.914084 -47.156445 0.000000 0.000000 0.000000 -7.125000 0.000000 0.000000 13.184852 85.951863 -12.230339 0.000000 0.000000 0.000000 -44.302668 -30.507239 79.525511 -65.049986 -57.511941 -38.573201 -17.977765 -37.846922 9.133786 0.000000 0.000000 0.000000 7.125000 0.000000 0.000000 7.799011 39.457787 1.070066
-8.848820 17.708070 -5.436781 -509.885005 71.806615 -495.646504 0.000000 0.000000 0.000000 -1.485135 -17.306116 -28.969835 2.992951 10.683591 31.219985 0.627019 -3.326811 -14.196785 3.000850 -10.696393 -31.262555 0.000000 0.000000 0.000000 23.315310 -4.810824 -10.292492 0.000000 0.000000 0.000000 0.168769 -7.833020 -5.997318 -0.826680 5.800849 -16.207626 -5.971718 2.048297 12.727676 -8.829117 2.553157 5.508926 -6.319904 1.595229 -1.117777 -0.301092 -3.699909 -20.554334 6.875584 -6.817243 34.477126 1.783696 -1.525925 16.042151 0.000000 0.000000 0.000000 -4.071393 -36.836405 -96.624596 18.584147 -28.898709 4.828203 43.290742 43.484032 -47.295337 0.000000 0.000000 0.000000 -7.125000 0.000000 0.000000 11.353320 86.011935 -10.541946 0.000000 0.000000 0.000000 -45.014224 -30.673645 80.599487 -65.381184 -57.581245 -38.852618 -19.119917 -34.382267 7.812806 0.000000 0.000000 0.000000 7.125000 0.000000 0.000000 6.622665 38.165395 1.119898
